<?xml version="1.0" encoding="utf-8" standalone="no"?>
<!DOCTYPE svg PUBLIC "-//W3C//DTD SVG 1.1//EN"
  "http://www.w3.org/Graphics/SVG/1.1/DTD/svg11.dtd">
<svg xmlns:xlink="http://www.w3.org/1999/xlink" width="720pt" height="720pt" viewBox="0 0 720 720" xmlns="http://www.w3.org/2000/svg" version="1.1">
 <metadata>
  <rdf:RDF xmlns:dc="http://purl.org/dc/elements/1.1/" xmlns:cc="http://creativecommons.org/ns#" xmlns:rdf="http://www.w3.org/1999/02/22-rdf-syntax-ns#">
   <cc:Work>
    <dc:type rdf:resource="http://purl.org/dc/dcmitype/StillImage"/>
    <dc:date>2024-12-05T16:02:42.868478</dc:date>
    <dc:format>image/svg+xml</dc:format>
    <dc:creator>
     <cc:Agent>
      <dc:title>Matplotlib v3.9.3, https://matplotlib.org/</dc:title>
     </cc:Agent>
    </dc:creator>
   </cc:Work>
  </rdf:RDF>
 </metadata>
 <defs>
  <style type="text/css">*{stroke-linejoin: round; stroke-linecap: butt}</style>
 </defs>
 <g id="figure_1">
  <g id="patch_1">
   <path d="M 0 720 
L 720 720 
L 720 0 
L 0 0 
z
" style="fill: #ffffff"/>
  </g>
  <g id="axes_1">
   <g id="LineCollection_1">
    <path d="M 637.174574 309.913486 
L 555.229447 298.490267 
" clip-path="url(#pfd398e9564)" style="fill: none; stroke: #000000"/>
    <path d="M 637.174574 309.913486 
L 565.166845 329.341352 
" clip-path="url(#pfd398e9564)" style="fill: none; stroke: #000000"/>
    <path d="M 555.229447 298.490267 
L 458.455478 319.38287 
" clip-path="url(#pfd398e9564)" style="fill: none; stroke: #000000"/>
    <path d="M 565.166845 329.341352 
L 458.455478 319.38287 
" clip-path="url(#pfd398e9564)" style="fill: none; stroke: #000000"/>
    <path d="M 280.306811 329.031872 
L 352.115062 309.338564 
" clip-path="url(#pfd398e9564)" style="fill: none; stroke: #000000"/>
    <path d="M 280.306811 329.031872 
L 363.512133 339.840679 
" clip-path="url(#pfd398e9564)" style="fill: none; stroke: #000000"/>
    <path d="M 352.115062 309.338564 
L 458.455478 319.38287 
" clip-path="url(#pfd398e9564)" style="fill: none; stroke: #000000"/>
    <path d="M 363.512133 339.840679 
L 458.455478 319.38287 
" clip-path="url(#pfd398e9564)" style="fill: none; stroke: #000000"/>
    <path d="M 196.933488 640.756295 
L 295.271748 625.590485 
" clip-path="url(#pfd398e9564)" style="fill: none; stroke: #000000"/>
    <path d="M 295.271748 625.590485 
L 433.077664 622.337633 
" clip-path="url(#pfd398e9564)" style="fill: none; stroke: #000000"/>
    <path d="M 367.525428 632.586915 
L 417.987161 657.520661 
" clip-path="url(#pfd398e9564)" style="fill: none; stroke: #000000"/>
    <path d="M 417.987161 657.520661 
L 433.077664 622.337633 
" clip-path="url(#pfd398e9564)" style="fill: none; stroke: #000000"/>
    <path d="M 657.520661 615.396763 
L 557.178836 615.448298 
" clip-path="url(#pfd398e9564)" style="fill: none; stroke: #000000"/>
    <path d="M 557.178836 615.448298 
L 433.077664 622.337633 
" clip-path="url(#pfd398e9564)" style="fill: none; stroke: #000000"/>
    <path d="M 443.222726 62.479339 
L 359.346464 78.843537 
" clip-path="url(#pfd398e9564)" style="fill: none; stroke: #000000"/>
    <path d="M 359.346464 78.843537 
L 264.465806 100.335495 
" clip-path="url(#pfd398e9564)" style="fill: none; stroke: #000000"/>
    <path d="M 62.479339 92.82794 
L 155.55362 96.019526 
" clip-path="url(#pfd398e9564)" style="fill: none; stroke: #000000"/>
    <path d="M 155.55362 96.019526 
L 264.465806 100.335495 
" clip-path="url(#pfd398e9564)" style="fill: none; stroke: #000000"/>
   </g>
   <g id="PathCollection_1">
    <defs>
     <path id="C0_0_4e420a6164" d="M 0 7.071068 
C 1.875269 7.071068 3.673985 6.326016 5 5 
C 6.326016 3.673985 7.071068 1.875269 7.071068 -0 
C 7.071068 -1.875269 6.326016 -3.673985 5 -5 
C 3.673985 -6.326016 1.875269 -7.071068 0 -7.071068 
C -1.875269 -7.071068 -3.673985 -6.326016 -5 -5 
C -6.326016 -3.673985 -7.071068 -1.875269 -7.071068 0 
C -7.071068 1.875269 -6.326016 3.673985 -5 5 
C -3.673985 6.326016 -1.875269 7.071068 0 7.071068 
z
"/>
    </defs>
    <g clip-path="url(#pfd398e9564)">
     <use xlink:href="#C0_0_4e420a6164" x="637.174574" y="309.913486" style="fill: #40e0d0; stroke: #40e0d0"/>
    </g>
    <g clip-path="url(#pfd398e9564)">
     <use xlink:href="#C0_0_4e420a6164" x="555.229447" y="298.490267" style="fill: #40e0d0; stroke: #40e0d0"/>
    </g>
    <g clip-path="url(#pfd398e9564)">
     <use xlink:href="#C0_0_4e420a6164" x="565.166845" y="329.341352" style="fill: #40e0d0; stroke: #40e0d0"/>
    </g>
    <g clip-path="url(#pfd398e9564)">
     <use xlink:href="#C0_0_4e420a6164" x="280.306811" y="329.031872" style="fill: #40e0d0; stroke: #40e0d0"/>
    </g>
    <g clip-path="url(#pfd398e9564)">
     <use xlink:href="#C0_0_4e420a6164" x="352.115062" y="309.338564" style="fill: #40e0d0; stroke: #40e0d0"/>
    </g>
    <g clip-path="url(#pfd398e9564)">
     <use xlink:href="#C0_0_4e420a6164" x="363.512133" y="339.840679" style="fill: #40e0d0; stroke: #40e0d0"/>
    </g>
    <g clip-path="url(#pfd398e9564)">
     <use xlink:href="#C0_0_4e420a6164" x="196.933488" y="640.756295" style="fill: #40e0d0; stroke: #40e0d0"/>
    </g>
    <g clip-path="url(#pfd398e9564)">
     <use xlink:href="#C0_0_4e420a6164" x="295.271748" y="625.590485" style="fill: #40e0d0; stroke: #40e0d0"/>
    </g>
    <g clip-path="url(#pfd398e9564)">
     <use xlink:href="#C0_0_4e420a6164" x="367.525428" y="632.586915" style="fill: #40e0d0; stroke: #40e0d0"/>
    </g>
    <g clip-path="url(#pfd398e9564)">
     <use xlink:href="#C0_0_4e420a6164" x="417.987161" y="657.520661" style="fill: #40e0d0; stroke: #40e0d0"/>
    </g>
    <g clip-path="url(#pfd398e9564)">
     <use xlink:href="#C0_0_4e420a6164" x="657.520661" y="615.396763" style="fill: #40e0d0; stroke: #40e0d0"/>
    </g>
    <g clip-path="url(#pfd398e9564)">
     <use xlink:href="#C0_0_4e420a6164" x="557.178836" y="615.448298" style="fill: #40e0d0; stroke: #40e0d0"/>
    </g>
    <g clip-path="url(#pfd398e9564)">
     <use xlink:href="#C0_0_4e420a6164" x="443.222726" y="62.479339" style="fill: #40e0d0; stroke: #40e0d0"/>
    </g>
    <g clip-path="url(#pfd398e9564)">
     <use xlink:href="#C0_0_4e420a6164" x="359.346464" y="78.843537" style="fill: #40e0d0; stroke: #40e0d0"/>
    </g>
    <g clip-path="url(#pfd398e9564)">
     <use xlink:href="#C0_0_4e420a6164" x="62.479339" y="92.82794" style="fill: #40e0d0; stroke: #40e0d0"/>
    </g>
    <g clip-path="url(#pfd398e9564)">
     <use xlink:href="#C0_0_4e420a6164" x="155.55362" y="96.019526" style="fill: #40e0d0; stroke: #40e0d0"/>
    </g>
    <g clip-path="url(#pfd398e9564)">
     <use xlink:href="#C0_0_4e420a6164" x="458.455478" y="319.38287" style="fill: #40e0d0; stroke: #40e0d0"/>
    </g>
    <g clip-path="url(#pfd398e9564)">
     <use xlink:href="#C0_0_4e420a6164" x="433.077664" y="622.337633" style="fill: #40e0d0; stroke: #40e0d0"/>
    </g>
    <g clip-path="url(#pfd398e9564)">
     <use xlink:href="#C0_0_4e420a6164" x="264.465806" y="100.335495" style="fill: #40e0d0; stroke: #40e0d0"/>
    </g>
   </g>
   <g id="text_1">
    <g clip-path="url(#pfd398e9564)">
     <!-- J.K. Rowling -->
     <g transform="translate(608.13473 312.672861) scale(0.1 -0.1)">
      <defs>
       <path id="DejaVuSans-4a" d="M 628 4666 
L 1259 4666 
L 1259 325 
Q 1259 -519 939 -900 
Q 619 -1281 -91 -1281 
L -331 -1281 
L -331 -750 
L -134 -750 
Q 284 -750 456 -515 
Q 628 -281 628 325 
L 628 4666 
z
" transform="scale(0.015625)"/>
       <path id="DejaVuSans-2e" d="M 684 794 
L 1344 794 
L 1344 0 
L 684 0 
L 684 794 
z
" transform="scale(0.015625)"/>
       <path id="DejaVuSans-4b" d="M 628 4666 
L 1259 4666 
L 1259 2694 
L 3353 4666 
L 4166 4666 
L 1850 2491 
L 4331 0 
L 3500 0 
L 1259 2247 
L 1259 0 
L 628 0 
L 628 4666 
z
" transform="scale(0.015625)"/>
       <path id="DejaVuSans-20" transform="scale(0.015625)"/>
       <path id="DejaVuSans-52" d="M 2841 2188 
Q 3044 2119 3236 1894 
Q 3428 1669 3622 1275 
L 4263 0 
L 3584 0 
L 2988 1197 
Q 2756 1666 2539 1819 
Q 2322 1972 1947 1972 
L 1259 1972 
L 1259 0 
L 628 0 
L 628 4666 
L 2053 4666 
Q 2853 4666 3247 4331 
Q 3641 3997 3641 3322 
Q 3641 2881 3436 2590 
Q 3231 2300 2841 2188 
z
M 1259 4147 
L 1259 2491 
L 2053 2491 
Q 2509 2491 2742 2702 
Q 2975 2913 2975 3322 
Q 2975 3731 2742 3939 
Q 2509 4147 2053 4147 
L 1259 4147 
z
" transform="scale(0.015625)"/>
       <path id="DejaVuSans-6f" d="M 1959 3097 
Q 1497 3097 1228 2736 
Q 959 2375 959 1747 
Q 959 1119 1226 758 
Q 1494 397 1959 397 
Q 2419 397 2687 759 
Q 2956 1122 2956 1747 
Q 2956 2369 2687 2733 
Q 2419 3097 1959 3097 
z
M 1959 3584 
Q 2709 3584 3137 3096 
Q 3566 2609 3566 1747 
Q 3566 888 3137 398 
Q 2709 -91 1959 -91 
Q 1206 -91 779 398 
Q 353 888 353 1747 
Q 353 2609 779 3096 
Q 1206 3584 1959 3584 
z
" transform="scale(0.015625)"/>
       <path id="DejaVuSans-77" d="M 269 3500 
L 844 3500 
L 1563 769 
L 2278 3500 
L 2956 3500 
L 3675 769 
L 4391 3500 
L 4966 3500 
L 4050 0 
L 3372 0 
L 2619 2869 
L 1863 0 
L 1184 0 
L 269 3500 
z
" transform="scale(0.015625)"/>
       <path id="DejaVuSans-6c" d="M 603 4863 
L 1178 4863 
L 1178 0 
L 603 0 
L 603 4863 
z
" transform="scale(0.015625)"/>
       <path id="DejaVuSans-69" d="M 603 3500 
L 1178 3500 
L 1178 0 
L 603 0 
L 603 3500 
z
M 603 4863 
L 1178 4863 
L 1178 4134 
L 603 4134 
L 603 4863 
z
" transform="scale(0.015625)"/>
       <path id="DejaVuSans-6e" d="M 3513 2113 
L 3513 0 
L 2938 0 
L 2938 2094 
Q 2938 2591 2744 2837 
Q 2550 3084 2163 3084 
Q 1697 3084 1428 2787 
Q 1159 2491 1159 1978 
L 1159 0 
L 581 0 
L 581 3500 
L 1159 3500 
L 1159 2956 
Q 1366 3272 1645 3428 
Q 1925 3584 2291 3584 
Q 2894 3584 3203 3211 
Q 3513 2838 3513 2113 
z
" transform="scale(0.015625)"/>
       <path id="DejaVuSans-67" d="M 2906 1791 
Q 2906 2416 2648 2759 
Q 2391 3103 1925 3103 
Q 1463 3103 1205 2759 
Q 947 2416 947 1791 
Q 947 1169 1205 825 
Q 1463 481 1925 481 
Q 2391 481 2648 825 
Q 2906 1169 2906 1791 
z
M 3481 434 
Q 3481 -459 3084 -895 
Q 2688 -1331 1869 -1331 
Q 1566 -1331 1297 -1286 
Q 1028 -1241 775 -1147 
L 775 -588 
Q 1028 -725 1275 -790 
Q 1522 -856 1778 -856 
Q 2344 -856 2625 -561 
Q 2906 -266 2906 331 
L 2906 616 
Q 2728 306 2450 153 
Q 2172 0 1784 0 
Q 1141 0 747 490 
Q 353 981 353 1791 
Q 353 2603 747 3093 
Q 1141 3584 1784 3584 
Q 2172 3584 2450 3431 
Q 2728 3278 2906 2969 
L 2906 3500 
L 3481 3500 
L 3481 434 
z
" transform="scale(0.015625)"/>
      </defs>
      <use xlink:href="#DejaVuSans-4a"/>
      <use xlink:href="#DejaVuSans-2e" x="29.492188"/>
      <use xlink:href="#DejaVuSans-4b" x="61.279297"/>
      <use xlink:href="#DejaVuSans-2e" x="126.855469"/>
      <use xlink:href="#DejaVuSans-20" x="158.642578"/>
      <use xlink:href="#DejaVuSans-52" x="190.429688"/>
      <use xlink:href="#DejaVuSans-6f" x="255.412109"/>
      <use xlink:href="#DejaVuSans-77" x="316.59375"/>
      <use xlink:href="#DejaVuSans-6c" x="398.380859"/>
      <use xlink:href="#DejaVuSans-69" x="426.164062"/>
      <use xlink:href="#DejaVuSans-6e" x="453.947266"/>
      <use xlink:href="#DejaVuSans-67" x="517.326172"/>
     </g>
    </g>
   </g>
   <g id="text_2">
    <g clip-path="url(#pfd398e9564)">
     <!-- Harry Potter and the Philosopher's Stone -->
     <g transform="translate(453.341165 301.249642) scale(0.1 -0.1)">
      <defs>
       <path id="DejaVuSans-48" d="M 628 4666 
L 1259 4666 
L 1259 2753 
L 3553 2753 
L 3553 4666 
L 4184 4666 
L 4184 0 
L 3553 0 
L 3553 2222 
L 1259 2222 
L 1259 0 
L 628 0 
L 628 4666 
z
" transform="scale(0.015625)"/>
       <path id="DejaVuSans-61" d="M 2194 1759 
Q 1497 1759 1228 1600 
Q 959 1441 959 1056 
Q 959 750 1161 570 
Q 1363 391 1709 391 
Q 2188 391 2477 730 
Q 2766 1069 2766 1631 
L 2766 1759 
L 2194 1759 
z
M 3341 1997 
L 3341 0 
L 2766 0 
L 2766 531 
Q 2569 213 2275 61 
Q 1981 -91 1556 -91 
Q 1019 -91 701 211 
Q 384 513 384 1019 
Q 384 1609 779 1909 
Q 1175 2209 1959 2209 
L 2766 2209 
L 2766 2266 
Q 2766 2663 2505 2880 
Q 2244 3097 1772 3097 
Q 1472 3097 1187 3025 
Q 903 2953 641 2809 
L 641 3341 
Q 956 3463 1253 3523 
Q 1550 3584 1831 3584 
Q 2591 3584 2966 3190 
Q 3341 2797 3341 1997 
z
" transform="scale(0.015625)"/>
       <path id="DejaVuSans-72" d="M 2631 2963 
Q 2534 3019 2420 3045 
Q 2306 3072 2169 3072 
Q 1681 3072 1420 2755 
Q 1159 2438 1159 1844 
L 1159 0 
L 581 0 
L 581 3500 
L 1159 3500 
L 1159 2956 
Q 1341 3275 1631 3429 
Q 1922 3584 2338 3584 
Q 2397 3584 2469 3576 
Q 2541 3569 2628 3553 
L 2631 2963 
z
" transform="scale(0.015625)"/>
       <path id="DejaVuSans-79" d="M 2059 -325 
Q 1816 -950 1584 -1140 
Q 1353 -1331 966 -1331 
L 506 -1331 
L 506 -850 
L 844 -850 
Q 1081 -850 1212 -737 
Q 1344 -625 1503 -206 
L 1606 56 
L 191 3500 
L 800 3500 
L 1894 763 
L 2988 3500 
L 3597 3500 
L 2059 -325 
z
" transform="scale(0.015625)"/>
       <path id="DejaVuSans-50" d="M 1259 4147 
L 1259 2394 
L 2053 2394 
Q 2494 2394 2734 2622 
Q 2975 2850 2975 3272 
Q 2975 3691 2734 3919 
Q 2494 4147 2053 4147 
L 1259 4147 
z
M 628 4666 
L 2053 4666 
Q 2838 4666 3239 4311 
Q 3641 3956 3641 3272 
Q 3641 2581 3239 2228 
Q 2838 1875 2053 1875 
L 1259 1875 
L 1259 0 
L 628 0 
L 628 4666 
z
" transform="scale(0.015625)"/>
       <path id="DejaVuSans-74" d="M 1172 4494 
L 1172 3500 
L 2356 3500 
L 2356 3053 
L 1172 3053 
L 1172 1153 
Q 1172 725 1289 603 
Q 1406 481 1766 481 
L 2356 481 
L 2356 0 
L 1766 0 
Q 1100 0 847 248 
Q 594 497 594 1153 
L 594 3053 
L 172 3053 
L 172 3500 
L 594 3500 
L 594 4494 
L 1172 4494 
z
" transform="scale(0.015625)"/>
       <path id="DejaVuSans-65" d="M 3597 1894 
L 3597 1613 
L 953 1613 
Q 991 1019 1311 708 
Q 1631 397 2203 397 
Q 2534 397 2845 478 
Q 3156 559 3463 722 
L 3463 178 
Q 3153 47 2828 -22 
Q 2503 -91 2169 -91 
Q 1331 -91 842 396 
Q 353 884 353 1716 
Q 353 2575 817 3079 
Q 1281 3584 2069 3584 
Q 2775 3584 3186 3129 
Q 3597 2675 3597 1894 
z
M 3022 2063 
Q 3016 2534 2758 2815 
Q 2500 3097 2075 3097 
Q 1594 3097 1305 2825 
Q 1016 2553 972 2059 
L 3022 2063 
z
" transform="scale(0.015625)"/>
       <path id="DejaVuSans-64" d="M 2906 2969 
L 2906 4863 
L 3481 4863 
L 3481 0 
L 2906 0 
L 2906 525 
Q 2725 213 2448 61 
Q 2172 -91 1784 -91 
Q 1150 -91 751 415 
Q 353 922 353 1747 
Q 353 2572 751 3078 
Q 1150 3584 1784 3584 
Q 2172 3584 2448 3432 
Q 2725 3281 2906 2969 
z
M 947 1747 
Q 947 1113 1208 752 
Q 1469 391 1925 391 
Q 2381 391 2643 752 
Q 2906 1113 2906 1747 
Q 2906 2381 2643 2742 
Q 2381 3103 1925 3103 
Q 1469 3103 1208 2742 
Q 947 2381 947 1747 
z
" transform="scale(0.015625)"/>
       <path id="DejaVuSans-68" d="M 3513 2113 
L 3513 0 
L 2938 0 
L 2938 2094 
Q 2938 2591 2744 2837 
Q 2550 3084 2163 3084 
Q 1697 3084 1428 2787 
Q 1159 2491 1159 1978 
L 1159 0 
L 581 0 
L 581 4863 
L 1159 4863 
L 1159 2956 
Q 1366 3272 1645 3428 
Q 1925 3584 2291 3584 
Q 2894 3584 3203 3211 
Q 3513 2838 3513 2113 
z
" transform="scale(0.015625)"/>
       <path id="DejaVuSans-73" d="M 2834 3397 
L 2834 2853 
Q 2591 2978 2328 3040 
Q 2066 3103 1784 3103 
Q 1356 3103 1142 2972 
Q 928 2841 928 2578 
Q 928 2378 1081 2264 
Q 1234 2150 1697 2047 
L 1894 2003 
Q 2506 1872 2764 1633 
Q 3022 1394 3022 966 
Q 3022 478 2636 193 
Q 2250 -91 1575 -91 
Q 1294 -91 989 -36 
Q 684 19 347 128 
L 347 722 
Q 666 556 975 473 
Q 1284 391 1588 391 
Q 1994 391 2212 530 
Q 2431 669 2431 922 
Q 2431 1156 2273 1281 
Q 2116 1406 1581 1522 
L 1381 1569 
Q 847 1681 609 1914 
Q 372 2147 372 2553 
Q 372 3047 722 3315 
Q 1072 3584 1716 3584 
Q 2034 3584 2315 3537 
Q 2597 3491 2834 3397 
z
" transform="scale(0.015625)"/>
       <path id="DejaVuSans-70" d="M 1159 525 
L 1159 -1331 
L 581 -1331 
L 581 3500 
L 1159 3500 
L 1159 2969 
Q 1341 3281 1617 3432 
Q 1894 3584 2278 3584 
Q 2916 3584 3314 3078 
Q 3713 2572 3713 1747 
Q 3713 922 3314 415 
Q 2916 -91 2278 -91 
Q 1894 -91 1617 61 
Q 1341 213 1159 525 
z
M 3116 1747 
Q 3116 2381 2855 2742 
Q 2594 3103 2138 3103 
Q 1681 3103 1420 2742 
Q 1159 2381 1159 1747 
Q 1159 1113 1420 752 
Q 1681 391 2138 391 
Q 2594 391 2855 752 
Q 3116 1113 3116 1747 
z
" transform="scale(0.015625)"/>
       <path id="DejaVuSans-27" d="M 1147 4666 
L 1147 2931 
L 616 2931 
L 616 4666 
L 1147 4666 
z
" transform="scale(0.015625)"/>
       <path id="DejaVuSans-53" d="M 3425 4513 
L 3425 3897 
Q 3066 4069 2747 4153 
Q 2428 4238 2131 4238 
Q 1616 4238 1336 4038 
Q 1056 3838 1056 3469 
Q 1056 3159 1242 3001 
Q 1428 2844 1947 2747 
L 2328 2669 
Q 3034 2534 3370 2195 
Q 3706 1856 3706 1288 
Q 3706 609 3251 259 
Q 2797 -91 1919 -91 
Q 1588 -91 1214 -16 
Q 841 59 441 206 
L 441 856 
Q 825 641 1194 531 
Q 1563 422 1919 422 
Q 2459 422 2753 634 
Q 3047 847 3047 1241 
Q 3047 1584 2836 1778 
Q 2625 1972 2144 2069 
L 1759 2144 
Q 1053 2284 737 2584 
Q 422 2884 422 3419 
Q 422 4038 858 4394 
Q 1294 4750 2059 4750 
Q 2388 4750 2728 4690 
Q 3069 4631 3425 4513 
z
" transform="scale(0.015625)"/>
      </defs>
      <use xlink:href="#DejaVuSans-48"/>
      <use xlink:href="#DejaVuSans-61" x="75.195312"/>
      <use xlink:href="#DejaVuSans-72" x="136.474609"/>
      <use xlink:href="#DejaVuSans-72" x="175.837891"/>
      <use xlink:href="#DejaVuSans-79" x="216.951172"/>
      <use xlink:href="#DejaVuSans-20" x="276.130859"/>
      <use xlink:href="#DejaVuSans-50" x="307.917969"/>
      <use xlink:href="#DejaVuSans-6f" x="364.595703"/>
      <use xlink:href="#DejaVuSans-74" x="425.777344"/>
      <use xlink:href="#DejaVuSans-74" x="464.986328"/>
      <use xlink:href="#DejaVuSans-65" x="504.195312"/>
      <use xlink:href="#DejaVuSans-72" x="565.71875"/>
      <use xlink:href="#DejaVuSans-20" x="606.832031"/>
      <use xlink:href="#DejaVuSans-61" x="638.619141"/>
      <use xlink:href="#DejaVuSans-6e" x="699.898438"/>
      <use xlink:href="#DejaVuSans-64" x="763.277344"/>
      <use xlink:href="#DejaVuSans-20" x="826.753906"/>
      <use xlink:href="#DejaVuSans-74" x="858.541016"/>
      <use xlink:href="#DejaVuSans-68" x="897.75"/>
      <use xlink:href="#DejaVuSans-65" x="961.128906"/>
      <use xlink:href="#DejaVuSans-20" x="1022.652344"/>
      <use xlink:href="#DejaVuSans-50" x="1054.439453"/>
      <use xlink:href="#DejaVuSans-68" x="1114.742188"/>
      <use xlink:href="#DejaVuSans-69" x="1178.121094"/>
      <use xlink:href="#DejaVuSans-6c" x="1205.904297"/>
      <use xlink:href="#DejaVuSans-6f" x="1233.6875"/>
      <use xlink:href="#DejaVuSans-73" x="1294.869141"/>
      <use xlink:href="#DejaVuSans-6f" x="1346.96875"/>
      <use xlink:href="#DejaVuSans-70" x="1408.150391"/>
      <use xlink:href="#DejaVuSans-68" x="1471.626953"/>
      <use xlink:href="#DejaVuSans-65" x="1535.005859"/>
      <use xlink:href="#DejaVuSans-72" x="1596.529297"/>
      <use xlink:href="#DejaVuSans-27" x="1637.642578"/>
      <use xlink:href="#DejaVuSans-73" x="1665.132812"/>
      <use xlink:href="#DejaVuSans-20" x="1717.232422"/>
      <use xlink:href="#DejaVuSans-53" x="1749.019531"/>
      <use xlink:href="#DejaVuSans-74" x="1812.496094"/>
      <use xlink:href="#DejaVuSans-6f" x="1851.705078"/>
      <use xlink:href="#DejaVuSans-6e" x="1912.886719"/>
      <use xlink:href="#DejaVuSans-65" x="1976.265625"/>
     </g>
    </g>
   </g>
   <g id="text_3">
    <g clip-path="url(#pfd398e9564)">
     <!-- Harry Potter and the Chamber of Secrets -->
     <g transform="translate(462.962939 332.100727) scale(0.1 -0.1)">
      <defs>
       <path id="DejaVuSans-43" d="M 4122 4306 
L 4122 3641 
Q 3803 3938 3442 4084 
Q 3081 4231 2675 4231 
Q 1875 4231 1450 3742 
Q 1025 3253 1025 2328 
Q 1025 1406 1450 917 
Q 1875 428 2675 428 
Q 3081 428 3442 575 
Q 3803 722 4122 1019 
L 4122 359 
Q 3791 134 3420 21 
Q 3050 -91 2638 -91 
Q 1578 -91 968 557 
Q 359 1206 359 2328 
Q 359 3453 968 4101 
Q 1578 4750 2638 4750 
Q 3056 4750 3426 4639 
Q 3797 4528 4122 4306 
z
" transform="scale(0.015625)"/>
       <path id="DejaVuSans-6d" d="M 3328 2828 
Q 3544 3216 3844 3400 
Q 4144 3584 4550 3584 
Q 5097 3584 5394 3201 
Q 5691 2819 5691 2113 
L 5691 0 
L 5113 0 
L 5113 2094 
Q 5113 2597 4934 2840 
Q 4756 3084 4391 3084 
Q 3944 3084 3684 2787 
Q 3425 2491 3425 1978 
L 3425 0 
L 2847 0 
L 2847 2094 
Q 2847 2600 2669 2842 
Q 2491 3084 2119 3084 
Q 1678 3084 1418 2786 
Q 1159 2488 1159 1978 
L 1159 0 
L 581 0 
L 581 3500 
L 1159 3500 
L 1159 2956 
Q 1356 3278 1631 3431 
Q 1906 3584 2284 3584 
Q 2666 3584 2933 3390 
Q 3200 3197 3328 2828 
z
" transform="scale(0.015625)"/>
       <path id="DejaVuSans-62" d="M 3116 1747 
Q 3116 2381 2855 2742 
Q 2594 3103 2138 3103 
Q 1681 3103 1420 2742 
Q 1159 2381 1159 1747 
Q 1159 1113 1420 752 
Q 1681 391 2138 391 
Q 2594 391 2855 752 
Q 3116 1113 3116 1747 
z
M 1159 2969 
Q 1341 3281 1617 3432 
Q 1894 3584 2278 3584 
Q 2916 3584 3314 3078 
Q 3713 2572 3713 1747 
Q 3713 922 3314 415 
Q 2916 -91 2278 -91 
Q 1894 -91 1617 61 
Q 1341 213 1159 525 
L 1159 0 
L 581 0 
L 581 4863 
L 1159 4863 
L 1159 2969 
z
" transform="scale(0.015625)"/>
       <path id="DejaVuSans-66" d="M 2375 4863 
L 2375 4384 
L 1825 4384 
Q 1516 4384 1395 4259 
Q 1275 4134 1275 3809 
L 1275 3500 
L 2222 3500 
L 2222 3053 
L 1275 3053 
L 1275 0 
L 697 0 
L 697 3053 
L 147 3053 
L 147 3500 
L 697 3500 
L 697 3744 
Q 697 4328 969 4595 
Q 1241 4863 1831 4863 
L 2375 4863 
z
" transform="scale(0.015625)"/>
       <path id="DejaVuSans-63" d="M 3122 3366 
L 3122 2828 
Q 2878 2963 2633 3030 
Q 2388 3097 2138 3097 
Q 1578 3097 1268 2742 
Q 959 2388 959 1747 
Q 959 1106 1268 751 
Q 1578 397 2138 397 
Q 2388 397 2633 464 
Q 2878 531 3122 666 
L 3122 134 
Q 2881 22 2623 -34 
Q 2366 -91 2075 -91 
Q 1284 -91 818 406 
Q 353 903 353 1747 
Q 353 2603 823 3093 
Q 1294 3584 2113 3584 
Q 2378 3584 2631 3529 
Q 2884 3475 3122 3366 
z
" transform="scale(0.015625)"/>
      </defs>
      <use xlink:href="#DejaVuSans-48"/>
      <use xlink:href="#DejaVuSans-61" x="75.195312"/>
      <use xlink:href="#DejaVuSans-72" x="136.474609"/>
      <use xlink:href="#DejaVuSans-72" x="175.837891"/>
      <use xlink:href="#DejaVuSans-79" x="216.951172"/>
      <use xlink:href="#DejaVuSans-20" x="276.130859"/>
      <use xlink:href="#DejaVuSans-50" x="307.917969"/>
      <use xlink:href="#DejaVuSans-6f" x="364.595703"/>
      <use xlink:href="#DejaVuSans-74" x="425.777344"/>
      <use xlink:href="#DejaVuSans-74" x="464.986328"/>
      <use xlink:href="#DejaVuSans-65" x="504.195312"/>
      <use xlink:href="#DejaVuSans-72" x="565.71875"/>
      <use xlink:href="#DejaVuSans-20" x="606.832031"/>
      <use xlink:href="#DejaVuSans-61" x="638.619141"/>
      <use xlink:href="#DejaVuSans-6e" x="699.898438"/>
      <use xlink:href="#DejaVuSans-64" x="763.277344"/>
      <use xlink:href="#DejaVuSans-20" x="826.753906"/>
      <use xlink:href="#DejaVuSans-74" x="858.541016"/>
      <use xlink:href="#DejaVuSans-68" x="897.75"/>
      <use xlink:href="#DejaVuSans-65" x="961.128906"/>
      <use xlink:href="#DejaVuSans-20" x="1022.652344"/>
      <use xlink:href="#DejaVuSans-43" x="1054.439453"/>
      <use xlink:href="#DejaVuSans-68" x="1124.263672"/>
      <use xlink:href="#DejaVuSans-61" x="1187.642578"/>
      <use xlink:href="#DejaVuSans-6d" x="1248.921875"/>
      <use xlink:href="#DejaVuSans-62" x="1346.333984"/>
      <use xlink:href="#DejaVuSans-65" x="1409.810547"/>
      <use xlink:href="#DejaVuSans-72" x="1471.333984"/>
      <use xlink:href="#DejaVuSans-20" x="1512.447266"/>
      <use xlink:href="#DejaVuSans-6f" x="1544.234375"/>
      <use xlink:href="#DejaVuSans-66" x="1605.416016"/>
      <use xlink:href="#DejaVuSans-20" x="1640.621094"/>
      <use xlink:href="#DejaVuSans-53" x="1672.408203"/>
      <use xlink:href="#DejaVuSans-65" x="1735.884766"/>
      <use xlink:href="#DejaVuSans-63" x="1797.408203"/>
      <use xlink:href="#DejaVuSans-72" x="1852.388672"/>
      <use xlink:href="#DejaVuSans-65" x="1891.251953"/>
      <use xlink:href="#DejaVuSans-74" x="1952.775391"/>
      <use xlink:href="#DejaVuSans-73" x="1991.984375"/>
     </g>
    </g>
   </g>
   <g id="text_4">
    <g clip-path="url(#pfd398e9564)">
     <!-- J.R.R. Tolkien -->
     <g transform="translate(248.707592 331.791247) scale(0.1 -0.1)">
      <defs>
       <path id="DejaVuSans-54" d="M -19 4666 
L 3928 4666 
L 3928 4134 
L 2272 4134 
L 2272 0 
L 1638 0 
L 1638 4134 
L -19 4134 
L -19 4666 
z
" transform="scale(0.015625)"/>
       <path id="DejaVuSans-6b" d="M 581 4863 
L 1159 4863 
L 1159 1991 
L 2875 3500 
L 3609 3500 
L 1753 1863 
L 3688 0 
L 2938 0 
L 1159 1709 
L 1159 0 
L 581 0 
L 581 4863 
z
" transform="scale(0.015625)"/>
      </defs>
      <use xlink:href="#DejaVuSans-4a"/>
      <use xlink:href="#DejaVuSans-2e" x="29.492188"/>
      <use xlink:href="#DejaVuSans-52" x="61.279297"/>
      <use xlink:href="#DejaVuSans-2e" x="127.136719"/>
      <use xlink:href="#DejaVuSans-52" x="158.923828"/>
      <use xlink:href="#DejaVuSans-2e" x="224.78125"/>
      <use xlink:href="#DejaVuSans-20" x="256.568359"/>
      <use xlink:href="#DejaVuSans-54" x="288.355469"/>
      <use xlink:href="#DejaVuSans-6f" x="332.439453"/>
      <use xlink:href="#DejaVuSans-6c" x="393.621094"/>
      <use xlink:href="#DejaVuSans-6b" x="421.404297"/>
      <use xlink:href="#DejaVuSans-69" x="479.314453"/>
      <use xlink:href="#DejaVuSans-65" x="507.097656"/>
      <use xlink:href="#DejaVuSans-6e" x="568.621094"/>
     </g>
    </g>
   </g>
   <g id="text_5">
    <g clip-path="url(#pfd398e9564)">
     <!-- The Hobbit -->
     <g transform="translate(324.709593 312.097939) scale(0.1 -0.1)">
      <use xlink:href="#DejaVuSans-54"/>
      <use xlink:href="#DejaVuSans-68" x="61.083984"/>
      <use xlink:href="#DejaVuSans-65" x="124.462891"/>
      <use xlink:href="#DejaVuSans-20" x="185.986328"/>
      <use xlink:href="#DejaVuSans-48" x="217.773438"/>
      <use xlink:href="#DejaVuSans-6f" x="292.96875"/>
      <use xlink:href="#DejaVuSans-62" x="354.150391"/>
      <use xlink:href="#DejaVuSans-62" x="417.626953"/>
      <use xlink:href="#DejaVuSans-69" x="481.103516"/>
      <use xlink:href="#DejaVuSans-74" x="508.886719"/>
     </g>
    </g>
   </g>
   <g id="text_6">
    <g clip-path="url(#pfd398e9564)">
     <!-- The Lord of the Rings -->
     <g transform="translate(310.120727 342.600054) scale(0.1 -0.1)">
      <defs>
       <path id="DejaVuSans-4c" d="M 628 4666 
L 1259 4666 
L 1259 531 
L 3531 531 
L 3531 0 
L 628 0 
L 628 4666 
z
" transform="scale(0.015625)"/>
      </defs>
      <use xlink:href="#DejaVuSans-54"/>
      <use xlink:href="#DejaVuSans-68" x="61.083984"/>
      <use xlink:href="#DejaVuSans-65" x="124.462891"/>
      <use xlink:href="#DejaVuSans-20" x="185.986328"/>
      <use xlink:href="#DejaVuSans-4c" x="217.773438"/>
      <use xlink:href="#DejaVuSans-6f" x="271.736328"/>
      <use xlink:href="#DejaVuSans-72" x="332.917969"/>
      <use xlink:href="#DejaVuSans-64" x="372.28125"/>
      <use xlink:href="#DejaVuSans-20" x="435.757812"/>
      <use xlink:href="#DejaVuSans-6f" x="467.544922"/>
      <use xlink:href="#DejaVuSans-66" x="528.726562"/>
      <use xlink:href="#DejaVuSans-20" x="563.931641"/>
      <use xlink:href="#DejaVuSans-74" x="595.71875"/>
      <use xlink:href="#DejaVuSans-68" x="634.927734"/>
      <use xlink:href="#DejaVuSans-65" x="698.306641"/>
      <use xlink:href="#DejaVuSans-20" x="759.830078"/>
      <use xlink:href="#DejaVuSans-52" x="791.617188"/>
      <use xlink:href="#DejaVuSans-69" x="861.099609"/>
      <use xlink:href="#DejaVuSans-6e" x="888.882812"/>
      <use xlink:href="#DejaVuSans-67" x="952.261719"/>
      <use xlink:href="#DejaVuSans-73" x="1015.738281"/>
     </g>
    </g>
   </g>
   <g id="text_7">
    <g clip-path="url(#pfd398e9564)">
     <!-- Aristotle -->
     <g transform="translate(176.018644 643.51567) scale(0.1 -0.1)">
      <defs>
       <path id="DejaVuSans-41" d="M 2188 4044 
L 1331 1722 
L 3047 1722 
L 2188 4044 
z
M 1831 4666 
L 2547 4666 
L 4325 0 
L 3669 0 
L 3244 1197 
L 1141 1197 
L 716 0 
L 50 0 
L 1831 4666 
z
" transform="scale(0.015625)"/>
      </defs>
      <use xlink:href="#DejaVuSans-41"/>
      <use xlink:href="#DejaVuSans-72" x="68.408203"/>
      <use xlink:href="#DejaVuSans-69" x="109.521484"/>
      <use xlink:href="#DejaVuSans-73" x="137.304688"/>
      <use xlink:href="#DejaVuSans-74" x="189.404297"/>
      <use xlink:href="#DejaVuSans-6f" x="228.613281"/>
      <use xlink:href="#DejaVuSans-74" x="289.794922"/>
      <use xlink:href="#DejaVuSans-6c" x="329.003906"/>
      <use xlink:href="#DejaVuSans-65" x="356.787109"/>
     </g>
    </g>
   </g>
   <g id="text_8">
    <g clip-path="url(#pfd398e9564)">
     <!-- Nicomachean Ethics -->
     <g transform="translate(244.551436 628.34986) scale(0.1 -0.1)">
      <defs>
       <path id="DejaVuSans-4e" d="M 628 4666 
L 1478 4666 
L 3547 763 
L 3547 4666 
L 4159 4666 
L 4159 0 
L 3309 0 
L 1241 3903 
L 1241 0 
L 628 0 
L 628 4666 
z
" transform="scale(0.015625)"/>
       <path id="DejaVuSans-45" d="M 628 4666 
L 3578 4666 
L 3578 4134 
L 1259 4134 
L 1259 2753 
L 3481 2753 
L 3481 2222 
L 1259 2222 
L 1259 531 
L 3634 531 
L 3634 0 
L 628 0 
L 628 4666 
z
" transform="scale(0.015625)"/>
      </defs>
      <use xlink:href="#DejaVuSans-4e"/>
      <use xlink:href="#DejaVuSans-69" x="74.804688"/>
      <use xlink:href="#DejaVuSans-63" x="102.587891"/>
      <use xlink:href="#DejaVuSans-6f" x="157.568359"/>
      <use xlink:href="#DejaVuSans-6d" x="218.75"/>
      <use xlink:href="#DejaVuSans-61" x="316.162109"/>
      <use xlink:href="#DejaVuSans-63" x="377.441406"/>
      <use xlink:href="#DejaVuSans-68" x="432.421875"/>
      <use xlink:href="#DejaVuSans-65" x="495.800781"/>
      <use xlink:href="#DejaVuSans-61" x="557.324219"/>
      <use xlink:href="#DejaVuSans-6e" x="618.603516"/>
      <use xlink:href="#DejaVuSans-20" x="681.982422"/>
      <use xlink:href="#DejaVuSans-45" x="713.769531"/>
      <use xlink:href="#DejaVuSans-74" x="776.953125"/>
      <use xlink:href="#DejaVuSans-68" x="816.162109"/>
      <use xlink:href="#DejaVuSans-69" x="879.541016"/>
      <use xlink:href="#DejaVuSans-63" x="907.324219"/>
      <use xlink:href="#DejaVuSans-73" x="962.304688"/>
     </g>
    </g>
   </g>
   <g id="text_9">
    <g clip-path="url(#pfd398e9564)">
     <!-- Socrates -->
     <g transform="translate(345.781678 635.34629) scale(0.1 -0.1)">
      <use xlink:href="#DejaVuSans-53"/>
      <use xlink:href="#DejaVuSans-6f" x="63.476562"/>
      <use xlink:href="#DejaVuSans-63" x="124.658203"/>
      <use xlink:href="#DejaVuSans-72" x="179.638672"/>
      <use xlink:href="#DejaVuSans-61" x="220.751953"/>
      <use xlink:href="#DejaVuSans-74" x="282.03125"/>
      <use xlink:href="#DejaVuSans-65" x="321.240234"/>
      <use xlink:href="#DejaVuSans-73" x="382.763672"/>
     </g>
    </g>
   </g>
   <g id="text_10">
    <g clip-path="url(#pfd398e9564)">
     <!-- The Republic -->
     <g transform="translate(385.728567 660.280036) scale(0.1 -0.1)">
      <defs>
       <path id="DejaVuSans-75" d="M 544 1381 
L 544 3500 
L 1119 3500 
L 1119 1403 
Q 1119 906 1312 657 
Q 1506 409 1894 409 
Q 2359 409 2629 706 
Q 2900 1003 2900 1516 
L 2900 3500 
L 3475 3500 
L 3475 0 
L 2900 0 
L 2900 538 
Q 2691 219 2414 64 
Q 2138 -91 1772 -91 
Q 1169 -91 856 284 
Q 544 659 544 1381 
z
M 1991 3584 
L 1991 3584 
z
" transform="scale(0.015625)"/>
      </defs>
      <use xlink:href="#DejaVuSans-54"/>
      <use xlink:href="#DejaVuSans-68" x="61.083984"/>
      <use xlink:href="#DejaVuSans-65" x="124.462891"/>
      <use xlink:href="#DejaVuSans-20" x="185.986328"/>
      <use xlink:href="#DejaVuSans-52" x="217.773438"/>
      <use xlink:href="#DejaVuSans-65" x="282.755859"/>
      <use xlink:href="#DejaVuSans-70" x="344.279297"/>
      <use xlink:href="#DejaVuSans-75" x="407.755859"/>
      <use xlink:href="#DejaVuSans-62" x="471.134766"/>
      <use xlink:href="#DejaVuSans-6c" x="534.611328"/>
      <use xlink:href="#DejaVuSans-69" x="562.394531"/>
      <use xlink:href="#DejaVuSans-63" x="590.177734"/>
     </g>
    </g>
   </g>
   <g id="text_11">
    <g clip-path="url(#pfd398e9564)">
     <!-- Thomas Aquinas -->
     <g transform="translate(616.208161 618.156138) scale(0.1 -0.1)">
      <defs>
       <path id="DejaVuSans-71" d="M 947 1747 
Q 947 1113 1208 752 
Q 1469 391 1925 391 
Q 2381 391 2643 752 
Q 2906 1113 2906 1747 
Q 2906 2381 2643 2742 
Q 2381 3103 1925 3103 
Q 1469 3103 1208 2742 
Q 947 2381 947 1747 
z
M 2906 525 
Q 2725 213 2448 61 
Q 2172 -91 1784 -91 
Q 1150 -91 751 415 
Q 353 922 353 1747 
Q 353 2572 751 3078 
Q 1150 3584 1784 3584 
Q 2172 3584 2448 3432 
Q 2725 3281 2906 2969 
L 2906 3500 
L 3481 3500 
L 3481 -1331 
L 2906 -1331 
L 2906 525 
z
" transform="scale(0.015625)"/>
      </defs>
      <use xlink:href="#DejaVuSans-54"/>
      <use xlink:href="#DejaVuSans-68" x="61.083984"/>
      <use xlink:href="#DejaVuSans-6f" x="124.462891"/>
      <use xlink:href="#DejaVuSans-6d" x="185.644531"/>
      <use xlink:href="#DejaVuSans-61" x="283.056641"/>
      <use xlink:href="#DejaVuSans-73" x="344.335938"/>
      <use xlink:href="#DejaVuSans-20" x="396.435547"/>
      <use xlink:href="#DejaVuSans-41" x="428.222656"/>
      <use xlink:href="#DejaVuSans-71" x="494.880859"/>
      <use xlink:href="#DejaVuSans-75" x="558.357422"/>
      <use xlink:href="#DejaVuSans-69" x="621.736328"/>
      <use xlink:href="#DejaVuSans-6e" x="649.519531"/>
      <use xlink:href="#DejaVuSans-61" x="712.898438"/>
      <use xlink:href="#DejaVuSans-73" x="774.177734"/>
     </g>
    </g>
   </g>
   <g id="text_12">
    <g clip-path="url(#pfd398e9564)">
     <!-- Summa Theologica -->
     <g transform="translate(509.258524 618.207673) scale(0.1 -0.1)">
      <use xlink:href="#DejaVuSans-53"/>
      <use xlink:href="#DejaVuSans-75" x="63.476562"/>
      <use xlink:href="#DejaVuSans-6d" x="126.855469"/>
      <use xlink:href="#DejaVuSans-6d" x="224.267578"/>
      <use xlink:href="#DejaVuSans-61" x="321.679688"/>
      <use xlink:href="#DejaVuSans-20" x="382.958984"/>
      <use xlink:href="#DejaVuSans-54" x="414.746094"/>
      <use xlink:href="#DejaVuSans-68" x="475.830078"/>
      <use xlink:href="#DejaVuSans-65" x="539.208984"/>
      <use xlink:href="#DejaVuSans-6f" x="600.732422"/>
      <use xlink:href="#DejaVuSans-6c" x="661.914062"/>
      <use xlink:href="#DejaVuSans-6f" x="689.697266"/>
      <use xlink:href="#DejaVuSans-67" x="750.878906"/>
      <use xlink:href="#DejaVuSans-69" x="814.355469"/>
      <use xlink:href="#DejaVuSans-63" x="842.138672"/>
      <use xlink:href="#DejaVuSans-61" x="897.119141"/>
     </g>
    </g>
   </g>
   <g id="text_13">
    <g clip-path="url(#pfd398e9564)">
     <!-- Cal Newport -->
     <g transform="translate(412.533664 65.238714) scale(0.1 -0.1)">
      <use xlink:href="#DejaVuSans-43"/>
      <use xlink:href="#DejaVuSans-61" x="69.824219"/>
      <use xlink:href="#DejaVuSans-6c" x="131.103516"/>
      <use xlink:href="#DejaVuSans-20" x="158.886719"/>
      <use xlink:href="#DejaVuSans-4e" x="190.673828"/>
      <use xlink:href="#DejaVuSans-65" x="265.478516"/>
      <use xlink:href="#DejaVuSans-77" x="327.001953"/>
      <use xlink:href="#DejaVuSans-70" x="408.789062"/>
      <use xlink:href="#DejaVuSans-6f" x="472.265625"/>
      <use xlink:href="#DejaVuSans-72" x="533.447266"/>
      <use xlink:href="#DejaVuSans-74" x="574.560547"/>
     </g>
    </g>
   </g>
   <g id="text_14">
    <g clip-path="url(#pfd398e9564)">
     <!-- Deep Work -->
     <g transform="translate(331.919901 81.602912) scale(0.1 -0.1)">
      <defs>
       <path id="DejaVuSans-44" d="M 1259 4147 
L 1259 519 
L 2022 519 
Q 2988 519 3436 956 
Q 3884 1394 3884 2338 
Q 3884 3275 3436 3711 
Q 2988 4147 2022 4147 
L 1259 4147 
z
M 628 4666 
L 1925 4666 
Q 3281 4666 3915 4102 
Q 4550 3538 4550 2338 
Q 4550 1131 3912 565 
Q 3275 0 1925 0 
L 628 0 
L 628 4666 
z
" transform="scale(0.015625)"/>
       <path id="DejaVuSans-57" d="M 213 4666 
L 850 4666 
L 1831 722 
L 2809 4666 
L 3519 4666 
L 4500 722 
L 5478 4666 
L 6119 4666 
L 4947 0 
L 4153 0 
L 3169 4050 
L 2175 0 
L 1381 0 
L 213 4666 
z
" transform="scale(0.015625)"/>
      </defs>
      <use xlink:href="#DejaVuSans-44"/>
      <use xlink:href="#DejaVuSans-65" x="77.001953"/>
      <use xlink:href="#DejaVuSans-65" x="138.525391"/>
      <use xlink:href="#DejaVuSans-70" x="200.048828"/>
      <use xlink:href="#DejaVuSans-20" x="263.525391"/>
      <use xlink:href="#DejaVuSans-57" x="295.3125"/>
      <use xlink:href="#DejaVuSans-6f" x="388.314453"/>
      <use xlink:href="#DejaVuSans-72" x="449.496094"/>
      <use xlink:href="#DejaVuSans-6b" x="490.609375"/>
     </g>
    </g>
   </g>
   <g id="text_15">
    <g clip-path="url(#pfd398e9564)">
     <!-- Tim Ferriss -->
     <g transform="translate(35.434026 95.587315) scale(0.1 -0.1)">
      <defs>
       <path id="DejaVuSans-46" d="M 628 4666 
L 3309 4666 
L 3309 4134 
L 1259 4134 
L 1259 2759 
L 3109 2759 
L 3109 2228 
L 1259 2228 
L 1259 0 
L 628 0 
L 628 4666 
z
" transform="scale(0.015625)"/>
      </defs>
      <use xlink:href="#DejaVuSans-54"/>
      <use xlink:href="#DejaVuSans-69" x="57.958984"/>
      <use xlink:href="#DejaVuSans-6d" x="85.742188"/>
      <use xlink:href="#DejaVuSans-20" x="183.154297"/>
      <use xlink:href="#DejaVuSans-46" x="214.941406"/>
      <use xlink:href="#DejaVuSans-65" x="266.960938"/>
      <use xlink:href="#DejaVuSans-72" x="328.484375"/>
      <use xlink:href="#DejaVuSans-72" x="367.847656"/>
      <use xlink:href="#DejaVuSans-69" x="408.960938"/>
      <use xlink:href="#DejaVuSans-73" x="436.744141"/>
      <use xlink:href="#DejaVuSans-73" x="488.84375"/>
     </g>
    </g>
   </g>
   <g id="text_16">
    <g clip-path="url(#pfd398e9564)">
     <!-- The 4-Hour Workweek -->
     <g transform="translate(100.249714 98.778901) scale(0.1 -0.1)">
      <defs>
       <path id="DejaVuSans-34" d="M 2419 4116 
L 825 1625 
L 2419 1625 
L 2419 4116 
z
M 2253 4666 
L 3047 4666 
L 3047 1625 
L 3713 1625 
L 3713 1100 
L 3047 1100 
L 3047 0 
L 2419 0 
L 2419 1100 
L 313 1100 
L 313 1709 
L 2253 4666 
z
" transform="scale(0.015625)"/>
       <path id="DejaVuSans-2d" d="M 313 2009 
L 1997 2009 
L 1997 1497 
L 313 1497 
L 313 2009 
z
" transform="scale(0.015625)"/>
      </defs>
      <use xlink:href="#DejaVuSans-54"/>
      <use xlink:href="#DejaVuSans-68" x="61.083984"/>
      <use xlink:href="#DejaVuSans-65" x="124.462891"/>
      <use xlink:href="#DejaVuSans-20" x="185.986328"/>
      <use xlink:href="#DejaVuSans-34" x="217.773438"/>
      <use xlink:href="#DejaVuSans-2d" x="281.396484"/>
      <use xlink:href="#DejaVuSans-48" x="317.480469"/>
      <use xlink:href="#DejaVuSans-6f" x="392.675781"/>
      <use xlink:href="#DejaVuSans-75" x="453.857422"/>
      <use xlink:href="#DejaVuSans-72" x="517.236328"/>
      <use xlink:href="#DejaVuSans-20" x="558.349609"/>
      <use xlink:href="#DejaVuSans-57" x="590.136719"/>
      <use xlink:href="#DejaVuSans-6f" x="683.138672"/>
      <use xlink:href="#DejaVuSans-72" x="744.320312"/>
      <use xlink:href="#DejaVuSans-6b" x="785.433594"/>
      <use xlink:href="#DejaVuSans-77" x="843.34375"/>
      <use xlink:href="#DejaVuSans-65" x="925.130859"/>
      <use xlink:href="#DejaVuSans-65" x="986.654297"/>
      <use xlink:href="#DejaVuSans-6b" x="1048.177734"/>
     </g>
    </g>
   </g>
   <g id="text_17">
    <g clip-path="url(#pfd398e9564)">
     <!-- Fantasy -->
     <g transform="translate(439.214853 322.142245) scale(0.1 -0.1)">
      <use xlink:href="#DejaVuSans-46"/>
      <use xlink:href="#DejaVuSans-61" x="48.394531"/>
      <use xlink:href="#DejaVuSans-6e" x="109.673828"/>
      <use xlink:href="#DejaVuSans-74" x="173.052734"/>
      <use xlink:href="#DejaVuSans-61" x="212.261719"/>
      <use xlink:href="#DejaVuSans-73" x="273.541016"/>
      <use xlink:href="#DejaVuSans-79" x="325.640625"/>
     </g>
    </g>
   </g>
   <g id="text_18">
    <g clip-path="url(#pfd398e9564)">
     <!-- Philosophy -->
     <g transform="translate(406.090164 625.097008) scale(0.1 -0.1)">
      <use xlink:href="#DejaVuSans-50"/>
      <use xlink:href="#DejaVuSans-68" x="60.302734"/>
      <use xlink:href="#DejaVuSans-69" x="123.681641"/>
      <use xlink:href="#DejaVuSans-6c" x="151.464844"/>
      <use xlink:href="#DejaVuSans-6f" x="179.248047"/>
      <use xlink:href="#DejaVuSans-73" x="240.429688"/>
      <use xlink:href="#DejaVuSans-6f" x="292.529297"/>
      <use xlink:href="#DejaVuSans-70" x="353.710938"/>
      <use xlink:href="#DejaVuSans-68" x="417.1875"/>
      <use xlink:href="#DejaVuSans-79" x="480.566406"/>
     </g>
    </g>
   </g>
   <g id="text_19">
    <g clip-path="url(#pfd398e9564)">
     <!-- Nonfiction -->
     <g transform="translate(239.021274 103.09487) scale(0.1 -0.1)">
      <use xlink:href="#DejaVuSans-4e"/>
      <use xlink:href="#DejaVuSans-6f" x="74.804688"/>
      <use xlink:href="#DejaVuSans-6e" x="135.986328"/>
      <use xlink:href="#DejaVuSans-66" x="199.365234"/>
      <use xlink:href="#DejaVuSans-69" x="234.570312"/>
      <use xlink:href="#DejaVuSans-63" x="262.353516"/>
      <use xlink:href="#DejaVuSans-74" x="317.333984"/>
      <use xlink:href="#DejaVuSans-69" x="356.542969"/>
      <use xlink:href="#DejaVuSans-6f" x="384.326172"/>
      <use xlink:href="#DejaVuSans-6e" x="445.507812"/>
     </g>
    </g>
   </g>
  </g>
 </g>
 <defs>
  <clipPath id="pfd398e9564">
   <rect x="0" y="0" width="720" height="720"/>
  </clipPath>
 </defs>
</svg>
